<svg width="15" height="16" fill="none" xmlns="http://www.w3.org/2000/svg">
  <path opacity=".3" d="M3.75 7.008a.625.625 0 11-1.25 0v-2.5a1.875 1.875 0 013.75 0 .625.625 0 11-1.25 0 .625.625 0 10-1.25 0v2.5zM3.75 13.258H2.5c0-1.726 1.4-2.5 3.125-2.5h3.75c1.726 0 3.125.774 3.125 2.5h-1.25c0-1.036-.84-1.25-1.875-1.25h-3.75c-1.036 0-1.875.214-1.875 1.25z" fill="#5C666B"/>
  <path fill-rule="evenodd" clip-rule="evenodd" d="M14.375 6.383H1.25l.47 4.234c.088.792.757 1.39 1.553 1.39h9.078c.797 0 1.465-.598 1.553-1.39l.471-4.235zM12.5 7.476a.469.469 0 00-.469.469c0 .894-.347 1.589-1.062 2.125a.469.469 0 10.562.75c.952-.713 1.438-1.686 1.438-2.875a.469.469 0 00-.469-.469z" fill="#5C666B"/>
</svg>
