<svg width="16" height="17" fill="none" xmlns="http://www.w3.org/2000/svg">
  <path opacity=".3" d="M2.667 15.191H1.334c0-1.84 1.492-2.666 3.333-2.666h6.667c1.84 0 3.333.826 3.333 2.666h-1.333c0-1.104-.896-1.333-2-1.333H4.667c-1.105 0-2 .229-2 1.333z" fill="#5C666B"/>
  <rect x=".667" y="9.858" width="14.667" height="4" rx=".375" fill="#5C666B"/>
  <path opacity=".3" fill-rule="evenodd" clip-rule="evenodd" d="M2 5.275a.75.75 0 01.75-.75h10.5a.75.75 0 01.75.75v3.541a.375.375 0 01-.375.375h-.958v-.958a.375.375 0 00-.375-.375h-3.25a.375.375 0 00-.375.375v.958H7.333v-.958a.375.375 0 00-.375-.375h-3.25a.375.375 0 00-.375.375v.958h-.958A.375.375 0 012 8.816V5.275z" fill="#5C666B"/>
</svg>
