<svg width="152" height="51" fill="none" xmlns="http://www.w3.org/2000/svg">
  <path d="M60.436 42.11c-1.696 0-3.233-.365-4.61-1.094a8.472 8.472 0 01-3.233-3.066c-.776-1.315-1.165-2.796-1.165-4.444 0-1.648.389-3.121 1.165-4.42a8.242 8.242 0 013.232-3.066c1.378-.745 2.923-1.117 4.634-1.117 1.442 0 2.741.254 3.898.76a7.81 7.81 0 012.947 2.187l-2.472 2.281c-1.125-1.299-2.519-1.948-4.182-1.948-1.03 0-1.95.23-2.757.689a4.814 4.814 0 00-1.901 1.877c-.444.808-.666 1.727-.666 2.757s.222 1.949.666 2.757a4.981 4.981 0 001.9 1.901c.809.444 1.728.666 2.758.666 1.663 0 3.057-.658 4.182-1.973l2.472 2.282a7.703 7.703 0 01-2.947 2.21c-1.172.507-2.48.76-3.921.76zM81.96 29.037v12.786h-3.518v-1.52a5.045 5.045 0 01-1.758 1.282 5.666 5.666 0 01-2.21.428c-1.68 0-3.01-.483-3.993-1.45-.982-.966-1.474-2.4-1.474-4.301v-7.225h3.708v6.678c0 2.06.863 3.09 2.59 3.09.888 0 1.6-.285 2.14-.856.538-.586.807-1.45.807-2.59v-6.322h3.708zm16.22-4.848v17.634h-3.54v-1.473c-.92 1.109-2.25 1.663-3.994 1.663-1.204 0-2.297-.27-3.28-.808a5.807 5.807 0 01-2.28-2.305c-.555-.998-.832-2.155-.832-3.47 0-1.315.277-2.471.831-3.47a5.808 5.808 0 012.282-2.305c.982-.538 2.075-.808 3.28-.808 1.631 0 2.907.515 3.826 1.545V24.19h3.707zM91.29 38.972c.935 0 1.711-.317 2.33-.95.617-.65.926-1.513.926-2.59 0-1.078-.309-1.934-.927-2.568-.618-.65-1.394-.974-2.329-.974-.95 0-1.735.325-2.353.974-.618.634-.927 1.49-.927 2.567 0 1.078.31 1.941.927 2.59.618.634 1.402.951 2.353.951zm22.967-9.934v12.786h-3.518v-1.52a5.044 5.044 0 01-1.758 1.282 5.668 5.668 0 01-2.21.428c-1.68 0-3.011-.483-3.993-1.45-.982-.966-1.473-2.4-1.473-4.301v-7.225h3.707v6.678c0 2.06.863 3.09 2.59 3.09.888 0 1.601-.285 2.139-.856.539-.586.808-1.45.808-2.59v-6.322h3.708zm6.738 1.688c.443-.618 1.038-1.086 1.782-1.402.761-.317 1.632-.476 2.614-.476v3.422a13.4 13.4 0 00-.831-.047c-1.062 0-1.894.3-2.496.903-.602.586-.903 1.473-.903 2.662v6.036h-3.707V29.038h3.541v1.688zm9.904 0a4.135 4.135 0 011.783-1.402c.76-.317 1.632-.476 2.614-.476v3.422a13.378 13.378 0 00-.832-.047c-1.062 0-1.893.3-2.495.903-.602.586-.903 1.473-.903 2.662v6.036h-3.708V29.038h3.541v1.688zm19.337-1.688v12.786h-3.517v-1.52a5.039 5.039 0 01-1.759 1.282 5.664 5.664 0 01-2.21.428c-1.679 0-3.01-.483-3.992-1.45-.983-.966-1.474-2.4-1.474-4.301v-7.225h3.708v6.678c0 2.06.863 3.09 2.59 3.09.887 0 1.6-.285 2.139-.856.539-.586.808-1.45.808-2.59v-6.322h3.707z" fill="#30393E"/>
  <g clip-path="url(#clip0)">
    <path d="M38.059 44.343v.09c-.048.104-.034.22-.037.328-.02.573-.358.954-.75 1.311-.402.368-.879.485-1.414.485-11.227-.005-22.454-.003-33.68.005-1.02 0-1.721-.674-2.063-1.406-.128-.274-.112-.598-.112-.9C0 36.114 0 27.973.003 19.83c0-.622.032-1.245.33-1.824.22-.426.498-.809.794-1.18.413-.521.912-.96 1.379-1.428 4.764-4.77 9.53-9.537 14.297-14.303.37-.37.791-.674 1.235-.948.158-.097.347-.079.511-.148h.94c.725.112 1.24.588 1.732 1.064 1.048 1.014 2.067 2.057 3.097 3.088l12.225 12.234a6.07 6.07 0 011.273 1.817c.16.357.178.73.22 1.106v5.558c-.043.532-.402.84-.795 1.122-.27.19-.593.287-.922.276-1.012-.01-2.025-.02-3.036 0-.84.017-1.797-.796-1.847-1.646-.045-.752-.015-1.502-.032-2.253a4.045 4.045 0 00-.626-2.085c-.345-.556-.786-1.028-1.24-1.486-2.826-2.844-5.661-5.68-8.505-8.508-.414-.411-.844-.817-1.399-1.054a1.436 1.436 0 00-1.184 0c-.553.238-.984.642-1.4 1.054-2.844 2.826-5.68 5.661-8.507 8.506-.575.579-1.146 1.176-1.489 1.934-.228.502-.377 1.028-.377 1.592 0 5.121.01 10.242-.008 15.362-.003.986.783 2.032 1.881 2.19.191.03.384.044.577.045h19.844c.587 0 1.137-.127 1.6-.512.504-.418.814-.943.83-1.61.011-.506.01-1.012 0-1.52-.015-.76.32-1.32.938-1.74.261-.18.548-.235.845-.24a68.897 68.897 0 012.946.003c.713.02 1.292.36 1.762.888.115.13.127.298.145.461v8.431c0 .09-.022.182.022.266z" fill="#FEEA19"/>
  </g>
  <defs>
    <clipPath id="clip0">
      <path fill="#fff" d="M0 0h38.046v46.541H0z"/>
    </clipPath>
  </defs>
</svg>