<svg width="33" height="40" fill="none" xmlns="http://www.w3.org/2000/svg">
  <path d="M32.279 37.609v.076c-.04.088-.029.187-.032.278-.016.486-.303.81-.635 1.112-.341.312-.746.412-1.2.412-9.521-.004-19.043-.003-28.565.003-.865 0-1.46-.571-1.75-1.192-.108-.233-.094-.507-.094-.763-.004-6.905-.004-13.81 0-20.715 0-.528.027-1.057.28-1.547.186-.362.422-.687.673-1.002.35-.442.773-.814 1.17-1.21C6.165 9.014 10.207 4.97 14.25.928a5.67 5.67 0 011.047-.803c.135-.083.295-.067.434-.126h.797c.615.095 1.052.499 1.469.903.889.859 1.753 1.744 2.627 2.618l10.368 10.376c.452.443.818.966 1.08 1.541.135.304.151.62.187.938V21.091c-.036.45-.342.711-.675.951a1.274 1.274 0 01-.782.234c-.858-.008-1.717-.017-2.575 0-.711.015-1.524-.675-1.566-1.396-.038-.638-.013-1.274-.027-1.91a3.433 3.433 0 00-.531-1.77c-.292-.47-.667-.871-1.052-1.26a1725.54 1725.54 0 00-7.213-7.215c-.351-.349-.716-.693-1.186-.894a1.218 1.218 0 00-1.005 0c-.47.202-.835.545-1.187.894a1603.824 1603.824 0 00-7.215 7.214c-.488.49-.972.997-1.263 1.64-.193.426-.32.872-.32 1.35 0 4.344.01 8.687-.006 13.03-.003.836.663 1.723 1.595 1.857.162.025.325.037.489.038h16.83c.498 0 .964-.108 1.358-.435.427-.354.69-.799.703-1.365.01-.429.008-.858 0-1.289-.013-.644.271-1.119.796-1.476.221-.152.464-.2.716-.203a58.467 58.467 0 012.5.002c.604.017 1.095.306 1.494.753.097.11.107.253.122.392V37.383c0 .077-.018.154.019.226z" fill="#FEEA19"/>
</svg>