<svg width="40" height="40" fill="none" xmlns="http://www.w3.org/2000/svg">
  <g clip-path="url(#clip0)">
    <path d="M39.676 11.676c-.093-2.11-.434-3.56-.923-4.818a9.691 9.691 0 00-2.297-3.522 9.774 9.774 0 00-3.514-2.289C31.677.56 30.234.217 28.124.124 25.998.024 25.324 0 19.931 0c-5.392 0-6.067.023-8.185.116-2.11.093-3.56.435-4.817.923a9.69 9.69 0 00-3.523 2.297 9.778 9.778 0 00-2.288 3.515c-.49 1.264-.83 2.707-.924 4.817-.1 2.126-.124 2.801-.124 8.193 0 5.392.024 6.067.117 8.185.093 2.11.434 3.56.923 4.818a9.793 9.793 0 002.296 3.522 9.773 9.773 0 003.515 2.289c1.264.489 2.707.83 4.818.923 2.117.093 2.793.116 8.185.116s6.067-.023 8.185-.116c2.11-.093 3.56-.434 4.817-.923a10.158 10.158 0 005.811-5.811c.489-1.265.83-2.708.923-4.818.094-2.118.117-2.793.117-8.185s-.008-6.067-.101-8.185zM36.1 27.891c-.086 1.94-.412 2.987-.683 3.685a6.588 6.588 0 01-3.77 3.77c-.699.272-1.754.598-3.686.683-2.095.093-2.723.116-8.022.116s-5.935-.023-8.022-.116c-1.94-.085-2.987-.41-3.685-.682a6.111 6.111 0 01-2.281-1.482 6.175 6.175 0 01-1.482-2.281c-.271-.698-.597-1.754-.682-3.685-.094-2.095-.117-2.724-.117-8.023 0-5.298.023-5.935.117-8.021.085-1.94.41-2.987.682-3.686a6.036 6.036 0 011.49-2.28 6.165 6.165 0 012.28-1.482c.699-.272 1.754-.598 3.686-.683 2.095-.093 2.723-.116 8.022-.116 5.306 0 5.935.023 8.022.116 1.94.085 2.987.411 3.685.683a6.106 6.106 0 012.28 1.481 6.174 6.174 0 011.483 2.281c.271.699.597 1.754.683 3.686.093 2.094.116 2.723.116 8.021 0 5.3-.023 5.92-.116 8.015z" fill="url(#paint0_linear)"/>
    <path d="M19.93 9.659c-5.631 0-10.201 4.57-10.201 10.202 0 5.633 4.57 10.202 10.202 10.202s10.202-4.57 10.202-10.202c0-5.633-4.57-10.202-10.202-10.202zm0 16.82a6.619 6.619 0 010-13.236 6.619 6.619 0 010 13.236z" fill="url(#paint1_linear)"/>
    <path d="M32.918 9.256a2.382 2.382 0 11-4.764 0 2.382 2.382 0 014.764 0z" fill="url(#paint2_linear)"/>
  </g>
  <defs>
    <linearGradient id="paint0_linear" x1="39.777" y1="0" x2="-2.835" y2="34.362" gradientUnits="userSpaceOnUse">
      <stop stop-color="#C0C1C2"/>
      <stop offset="1" stop-color="#F2F2F2"/>
    </linearGradient>
    <linearGradient id="paint1_linear" x1="30.133" y1="9.659" x2="8.239" y2="27.317" gradientUnits="userSpaceOnUse">
      <stop stop-color="#C0C1C2"/>
      <stop offset="1" stop-color="#F2F2F2"/>
    </linearGradient>
    <linearGradient id="paint2_linear" x1="32.918" y1="6.874" x2="27.807" y2="10.997" gradientUnits="userSpaceOnUse">
      <stop stop-color="#C0C1C2"/>
      <stop offset="1" stop-color="#F2F2F2"/>
    </linearGradient>
    <clipPath id="clip0">
      <path fill="#fff" d="M0 0h39.714v39.714H0z"/>
    </clipPath>
  </defs>
</svg>