<svg width="266" height="218" fill="none" xmlns="http://www.w3.org/2000/svg">
  <path d="M156.779 157.371s-33.871-4.064-45.725-10.5c-11.855-6.435-99.92-9.484-99.92 10.5s101.274 28.79 101.274 28.79l53.178-3.048-8.807-25.742z" fill="#FBDBBE"/>
  <path opacity=".1" d="M156.779 157.371s-33.871-4.064-45.725-10.5c-11.855-6.435-99.92-9.484-99.92 10.5s101.274 28.79 101.274 28.79l53.178-3.048-8.807-25.742z" fill="#000"/>
  <path d="M146.957 153.645l7.113 20.662 111.435 1.354v-30.483s-42.677-9.823-76.548 11.177c0 0-39.968-4.742-42-2.71z" fill="#465054"/>
  <path opacity=".1" d="M147.099 153.543l7.113 20.661 111.435 1.355v-30.484s-42.677-9.822-76.548 11.178c0 0-39.968-4.742-42-2.71z" fill="#465054"/>
  <path d="M50.337 89.821c-20.749 0-37.57-16.82-37.57-37.57s16.821-37.57 37.57-37.57c20.75 0 37.57 16.82 37.57 37.57s-16.82 37.57-37.57 37.57z" fill="#FCF078" fill-opacity=".15"/>
  <path d="M50.337 82.307c-16.6 0-30.056-13.456-30.056-30.056s13.457-30.056 30.056-30.056c16.6 0 30.056 13.457 30.056 30.056 0 16.6-13.456 30.056-30.056 30.056z" fill="#FFEB1E"/>
  <path d="M117 81.357a15.575 15.575 0 01-3.707-12.39 15.578 15.578 0 016.925-10.922 9.216 9.216 0 01-1.476-5.01c0-5.034 3.99-9.117 8.914-9.117 4.046 0 7.472 2.773 8.553 6.563a13.216 13.216 0 0111.367-6.563c7.337 0 13.285 6.083 13.285 13.585a13.83 13.83 0 01-.813 4.69c.269-.021.539-.043.813-.043 5.895-.002 10.664 4.879 10.664 10.91 0 .371-.019.737-.054 1.1a13.553 13.553 0 018.007 12.44c0 7.48-5.928 13.54-13.24 13.54a13.067 13.067 0 01-2.291-.206c.039.451.064.908.064 1.368 0 8.391-6.651 15.194-14.857 15.194a14.56 14.56 0 01-8.46-2.697 10.903 10.903 0 01-7.182 2.697c-6.129 0-11.1-5.083-11.1-11.352 0-.272.021-.538.041-.805h-.041c-6.564 0-11.886-5.443-11.886-12.156A12.19 12.19 0 01117 81.357z" fill="#EDD800"/>
  <path d="M115.172 81.434a16.595 16.595 0 01-3.948-13.198 16.596 16.596 0 017.375-11.636 9.825 9.825 0 01-1.572-5.347c0-5.364 4.252-9.712 9.497-9.712 4.319 0 7.961 2.953 9.111 6.992 2.479-4.19 6.978-6.992 12.117-6.992 7.816 0 14.151 6.48 14.151 14.473a14.744 14.744 0 01-.867 4.996 10.8 10.8 0 01.867-.045c6.273 0 11.367 5.202 11.367 11.618 0 .395-.019.786-.057 1.174a14.442 14.442 0 018.523 13.253c0 7.967-6.316 14.427-14.105 14.427a13.867 13.867 0 01-2.441-.22c.042.48.067.964.067 1.459 0 8.94-7.086 16.184-15.827 16.184a15.512 15.512 0 01-9.013-2.89 11.62 11.62 0 01-7.653 2.89c-6.529 0-11.824-5.414-11.824-12.094 0-.289.023-.578.042-.857h-.042c-6.994 0-12.662-5.798-12.662-12.95a12.981 12.981 0 016.894-11.525z" fill="url(#paint0_linear)"/>
  <path d="M141.172 65.223h1.736v84.629h-1.736V65.223z" fill="#30393E"/>
  <path d="M128.343 74.845l14.244 15.382-1.274 1.18-14.244-15.383 1.274-1.18zM156.68 92.312l1.035 1.394-14.768 10.968-1.035-1.394 14.768-10.968z" fill="#30393E"/>
  <path d="M140.438 64.017h3.451v85.835h-3.451V64.017z" fill="url(#paint1_linear)"/>
  <path d="M136.845 90.977a13.393 13.393 0 003.633-9.155c0-4.902-2.664-9.198-6.668-11.62a7.904 7.904 0 001.384-4.464c0-4.487-3.765-8.125-8.41-8.125-3.827 0-7.05 2.47-8.069 5.85a12.622 12.622 0 00-10.73-5.85c-6.922 0-12.523 5.422-12.523 12.11 0 1.427.261 2.844.77 4.178-.254-.02-.508-.036-.77-.036-5.557 0-10.06 4.35-10.06 9.718.001.327.019.654.053.98-4.443 1.85-7.555 6.117-7.555 11.088 0 6.667 5.588 12.069 12.493 12.069a12.947 12.947 0 002.162-.193c-.037.403-.06.808-.06 1.22 0 7.479 6.275 13.542 14.016 13.542a14.28 14.28 0 007.971-2.412 10.635 10.635 0 006.778 2.412c5.78 0 10.471-4.529 10.471-10.117 0-.242-.019-.479-.036-.718h.036c6.193 0 11.214-4.852 11.214-10.834 0-4.204-2.484-7.847-6.1-9.643z" fill="url(#paint2_linear)"/>
  <path d="M135.635 90.939a12.82 12.82 0 003.468-8.765c0-4.691-2.551-8.803-6.383-11.12a7.55 7.55 0 001.331-4.282c0-4.294-3.605-7.778-8.05-7.778-3.66 0-6.743 2.364-7.724 5.6A12.078 12.078 0 00108.018 59c-6.626 0-11.996 5.189-11.996 11.59a11.218 11.218 0 00.734 4c-.242-.017-.485-.036-.734-.036-5.317 0-9.633 4.166-9.633 9.302 0 .314.016.627.048.938-4.252 1.771-7.23 5.856-7.23 10.612 0 6.38 5.352 11.561 11.956 11.561a12.458 12.458 0 002.068-.185c-.035.385-.056.77-.056 1.167 0 7.16 6.007 12.963 13.415 12.963 2.72.006 5.38-.799 7.639-2.312a10.19 10.19 0 006.488 2.312c5.535 0 10.018-4.335 10.018-9.684 0-.231-.019-.458-.036-.688h.036c5.929 0 10.734-4.643 10.734-10.369.009-4.027-2.366-7.514-5.834-9.233z" fill="#FCF078"/>
  <path d="M111.066 77.375h3.924v72.042h-3.924V77.375z" fill="url(#paint3_linear)"/>
  <path d="M111.879 77.375h2.169v72.042h-2.169V77.375z" fill="#30393E"/>
  <path d="M124.835 85.07l1.549 1.519-12.864 13.123-1.549-1.519 12.864-13.123zM100.031 99.98l13.336 9.359-1.246 1.776-13.336-9.358 1.246-1.776z" fill="#30393E"/>
  <path d="M123.207 159.666V87.914L74.05 51.4 24.541 90.564v69.102h98.666z" fill="#fff" stroke="#30393E" stroke-width="2.591" stroke-linecap="round" stroke-linejoin="round"/>
  <path d="M133.216 100.595l1.338-7.516-60.73-47.39-60.132 47.389 1.345 7.502 57.458-45.282a2.159 2.159 0 012.665-.007l58.056 45.304zm-119.57-7.772h0z" fill="#fff" stroke="#30393E" stroke-width="2.591" stroke-linecap="round" stroke-linejoin="round"/>
  <path d="M63.98 83.588c0 5.492 4.453 9.945 9.945 9.945 5.493 0 9.945-4.453 9.945-9.945s-4.453-9.945-9.945-9.945-9.945 4.453-9.945 9.945z" fill="url(#paint4_linear)" stroke="#30393E" stroke-width="2.591" stroke-linecap="round" stroke-linejoin="round"/>
  <path d="M113.573 123.839V106.56H96.294v17.279h17.279z" fill="url(#paint5_linear)" stroke="#30393E" stroke-width="2.591" stroke-linecap="round" stroke-linejoin="round"/>
  <path d="M84.872 159.666v-30.627H63.177v30.627h21.695z" fill="url(#paint6_linear)" stroke="#30393E" stroke-width="2.591" stroke-linecap="round" stroke-linejoin="round"/>
  <path d="M51.957 123.839V106.56h-17.28v17.279h17.28z" fill="url(#paint7_linear)" stroke="#30393E" stroke-width="2.591" stroke-linecap="round" stroke-linejoin="round"/>
  <path d="M37.802 73.886l5.896-4.623-.074-6.365H37.73l.07 10.988z" fill="#fff" stroke="#30393E" stroke-width="2.591" stroke-linecap="round" stroke-linejoin="round"/>
  <path d="M116.513 133.534a7.66 7.66 0 01-1.819-6.083 7.664 7.664 0 013.398-5.363 4.53 4.53 0 01-.724-2.465 4.365 4.365 0 018.578-1.254 6.487 6.487 0 015.587-3.223c3.603 0 6.524 2.986 6.524 6.672a6.799 6.799 0 01-.399 2.312c.133-.01.264-.021.399-.021 2.89 0 5.236 2.396 5.236 5.354 0 .183 0 .362-.027.541a6.659 6.659 0 013.933 6.11c0 3.672-2.912 6.649-6.503 6.649a6.43 6.43 0 01-1.125-.102c.019.221.031.445.031.672 0 4.121-3.276 7.462-7.297 7.462a7.15 7.15 0 01-4.153-1.33 5.353 5.353 0 01-3.528 1.33c-3.01 0-5.451-2.505-5.451-5.574 0-.133.01-.264.02-.395h-.02c-3.223 0-5.836-2.672-5.836-5.973a5.982 5.982 0 013.176-5.319z" fill="url(#paint8_linear)"/>
  <path d="M117.356 133.499a7.184 7.184 0 011.484-10.745 4.252 4.252 0 01-.68-2.312 4.098 4.098 0 018.051-1.177 6.09 6.09 0 015.239-3.025c3.381 0 6.123 2.803 6.123 6.262a6.375 6.375 0 01-.376 2.162c.124 0 .249-.02.376-.02 2.715 0 4.915 2.251 4.915 5.027 0 .171 0 .341-.025.507a6.253 6.253 0 013.691 5.733c0 3.447-2.732 6.243-6.103 6.243-.354 0-.708-.032-1.056-.095.017.208.029.418.029.63 0 3.869-3.066 7.004-6.848 7.004a6.706 6.706 0 01-3.899-1.249 5.027 5.027 0 01-3.312 1.249c-2.827 0-5.115-2.343-5.115-5.233 0-.125.009-.249.019-.372h-.019c-3.025 0-5.48-2.504-5.48-5.603a5.623 5.623 0 012.986-4.986z" fill="#EDD800"/>
  <path d="M122.491 130.115l6.566 7.091-.587.543-6.566-7.091.587-.543zM135.647 138.553l.477.642-6.808 5.055-.476-.642 6.807-5.055z" fill="#30393E"/>
  <path d="M128.159 125.601h1.592v39.566h-1.592v-39.566z" fill="url(#paint9_linear)"/>
  <path d="M128.498 126.156h.8v39.011h-.8v-39.011z" fill="#30393E"/>
  <path d="M126.5 138.028a6.166 6.166 0 001.675-4.221 6.27 6.27 0 00-3.083-5.356 3.641 3.641 0 00.642-2.062c0-2.069-1.734-3.745-3.877-3.745a3.849 3.849 0 00-3.72 2.697 5.822 5.822 0 00-4.946-2.697c-3.191 0-5.78 2.504-5.78 5.587 0 .659.12 1.312.355 1.927-.118 0-.236-.018-.355-.018-2.561 0-4.637 2.006-4.637 4.48-.001.151.007.302.023.453a5.565 5.565 0 00-3.482 5.111c0 3.073 2.578 5.564 5.759 5.564.334 0 .667-.028.996-.084a6.235 6.235 0 00-.027.562c0 3.447 2.89 6.243 6.462 6.243a6.594 6.594 0 003.68-1.112 4.906 4.906 0 003.127 1.104c2.667 0 4.826-2.089 4.826-4.665 0-.111 0-.221-.017-.331h.017c2.856 0 5.17-2.237 5.17-4.994a4.979 4.979 0 00-2.808-4.443z" fill="url(#paint10_linear)"/>
  <path d="M125.907 138.013a5.908 5.908 0 001.603-4.046 5.993 5.993 0 00-2.942-5.127c.4-.58.614-1.268.615-1.973 0-1.981-1.661-3.586-3.711-3.586a3.699 3.699 0 00-3.561 2.58 5.572 5.572 0 00-4.734-2.58c-3.053 0-5.529 2.391-5.529 5.343 0 .63.115 1.255.339 1.844-.112 0-.223-.017-.339-.017-2.451 0-4.431 1.926-4.431 4.288 0 .145.008.29.023.434a5.322 5.322 0 00-3.333 4.892c0 2.94 2.468 5.325 5.512 5.325.323 0 .645-.027.963-.081a5.617 5.617 0 00-.027.538c0 3.3 2.769 5.972 6.185 5.972a6.3 6.3 0 003.522-1.063 4.69 4.69 0 002.99 1.063c2.551 0 4.624-1.998 4.624-4.464 0-.106 0-.212-.017-.316h.017c2.732 0 4.948-2.14 4.948-4.78a4.758 4.758 0 00-2.717-4.246z" fill="#FCF078"/>
  <path d="M120.967 135.305l.714.7-5.93 6.05-.714-.7 5.93-6.05zM109.532 142.176l6.147 4.314-.574.818-6.147-4.314.574-.818z" fill="#30393E"/>
  <path d="M114.621 131.757h1.809v33.208h-1.809v-33.208z" fill="url(#paint11_linear)"/>
  <path d="M114.994 131.757h1v33.208h-1v-33.208z" fill="#30393E"/>
  <path d="M172.998 121.107a1.541 1.541 0 110-3.082 1.541 1.541 0 010 3.082z" fill="url(#paint12_linear)"/>
  <path d="M36.55 3.083a1.541 1.541 0 110-3.083 1.541 1.541 0 010 3.083z" fill="url(#paint13_linear)"/>
  <path d="M113.466 37.516a1.199 1.199 0 110-2.398 1.199 1.199 0 010 2.398zM1.198 108.907a1.199 1.199 0 11.001-2.398 1.199 1.199 0 010 2.398z" fill="#E6E6E6"/>
  <path d="M39.983 139.812a6.95 6.95 0 001.652-5.529 6.963 6.963 0 00-3.089-4.875c.431-.667.66-1.445.659-2.24a3.969 3.969 0 00-7.8-1.141 5.897 5.897 0 00-5.078-2.93c-3.275 0-5.93 2.716-5.93 6.065a6.175 6.175 0 00.362 2.094c-.12 0-.24-.019-.362-.019-2.63 0-4.76 2.179-4.76 4.869 0 .165 0 .329.024.491a6.054 6.054 0 00-3.576 5.554c0 3.339 2.647 6.046 5.911 6.046.343 0 .686-.031 1.023-.092a6.934 6.934 0 00-.029.611c0 3.747 2.97 6.783 6.634 6.783a6.495 6.495 0 003.778-1.208 4.867 4.867 0 003.21 1.208c2.736 0 4.955-2.269 4.955-5.069 0-.121 0-.241-.017-.36h.017c2.93 0 5.306-2.43 5.306-5.427a5.442 5.442 0 00-2.89-4.831z" fill="url(#paint14_linear)"/>
  <path d="M39.217 139.782a6.533 6.533 0 00-1.35-9.769c.406-.626.621-1.356.62-2.102a3.726 3.726 0 00-7.322-1.071 5.535 5.535 0 00-4.767-2.751c-3.082 0-5.566 2.549-5.566 5.693 0 .67.115 1.335.341 1.965-.113 0-.225-.017-.34-.017-2.469 0-4.469 2.046-4.469 4.57 0 .156 0 .31.023.461a5.674 5.674 0 00-3.356 5.213c0 3.135 2.484 5.674 5.549 5.674.323 0 .645-.029.963-.087a6.442 6.442 0 00-.027.578c0 3.517 2.788 6.368 6.227 6.368 1.271 0 2.51-.396 3.545-1.135a4.567 4.567 0 003.01 1.135c2.568 0 4.65-2.129 4.65-4.757 0-.114 0-.225-.017-.337h.018c2.751 0 4.98-2.281 4.98-5.094a5.108 5.108 0 00-2.712-4.537z" fill="#EDD800"/>
  <path d="M28.36 133.019h.728v35.468h-.728v-35.468z" fill="#30393E"/>
  <path d="M34.262 137.04l.535.495-5.97 6.446-.534-.495 5.97-6.446zM22.587 144.368l6.19 4.597-.434.585-6.19-4.597.434-.585z" fill="#30393E"/>
  <path d="M27.95 132.514h1.446v35.973H27.95v-35.973z" fill="url(#paint15_linear)"/>
  <path d="M30.905 143.812a5.612 5.612 0 01-1.522-3.838 5.693 5.693 0 012.793-4.876 3.307 3.307 0 01-.578-1.875c0-1.88 1.578-3.406 3.524-3.406a3.507 3.507 0 013.382 2.451A5.281 5.281 0 0143 129.817c2.901 0 5.252 2.271 5.252 5.075a4.91 4.91 0 01-.322 1.751c.106 0 .214-.015.322-.015 2.327 0 4.215 1.822 4.215 4.073 0 .137-.007.274-.021.41a5.056 5.056 0 013.165 4.647c0 2.794-2.344 5.058-5.234 5.058a5.607 5.607 0 01-.906-.077c.016.167.025.339.025.51 0 3.135-2.63 5.676-5.874 5.676a5.988 5.988 0 01-3.345-1.011 4.468 4.468 0 01-2.85 1.023c-2.423 0-4.388-1.898-4.388-4.239 0-.102 0-.193.015-.301h-.015c-2.596 0-4.7-2.032-4.7-4.541a4.525 4.525 0 012.565-4.044z" fill="url(#paint16_linear)"/>
  <path d="M31.308 143.801a5.373 5.373 0 01-1.465-3.674 5.455 5.455 0 012.674-4.661 3.166 3.166 0 01-.558-1.794c0-1.799 1.51-3.26 3.373-3.26a3.364 3.364 0 013.237 2.347 5.056 5.056 0 014.304-2.347c2.777 0 5.027 2.175 5.027 4.857 0 .573-.104 1.141-.308 1.677.102 0 .204-.016.308-.016 2.23 0 4.034 1.746 4.034 3.898 0 .129-.007.257-.02.385a4.838 4.838 0 013.03 4.447c0 2.674-2.243 4.842-5.01 4.842-.29 0-.58-.025-.866-.074.015.162.023.324.023.49 0 3-2.519 5.433-5.622 5.433a5.736 5.736 0 01-3.203-.963 4.267 4.267 0 01-2.718.963c-2.312 0-4.2-1.817-4.2-4.058 0-.096 0-.192.015-.287h-.015c-2.484 0-4.499-1.946-4.499-4.346a4.332 4.332 0 012.459-3.859z" fill="#FCF078"/>
  <path d="M40.455 138.113h.91v30.193h-.91v-30.193z" fill="#30393E"/>
  <path d="M35.935 141.339l5.39 5.499-.649.636-5.39-5.499.649-.636zM46.33 147.591l.522.744-5.59 3.922-.522-.744 5.59-3.922z" fill="#30393E"/>
  <path d="M40.058 138.113h1.646v30.193h-1.646v-30.193z" fill="url(#paint17_linear)"/>
  <path d="M150.551 164.085s-15.11-.956-14.433 4.463c.677 5.42 1.355 47.42 5.419 48.436C145.602 218 177.779 218 190.989 218h74.516v-64.935s-52.839-3.146-79.258 10.064c0 0-31.763-.458-35.696.956z" fill="#5C666B"/>
  <path d="M141.537 166.178s-38.274-19.646-63-12.194c-24.725 7.452-59.274-5.419-63.338-1.016-4.065 4.403-9.823 51.822 38.951 54.532 48.774 2.71 90.436-8.129 90.436-8.129l-3.049-33.193z" fill="#FBDBBE"/>
  <defs>
    <linearGradient id="paint0_linear" x1="-25355.4" y1="43319.4" x2="-25355.4" y2="12290.4" gradientUnits="userSpaceOnUse">
      <stop stop-color="gray" stop-opacity=".25"/>
      <stop offset=".54" stop-color="gray" stop-opacity=".12"/>
      <stop offset="1" stop-color="gray" stop-opacity=".1"/>
    </linearGradient>
    <linearGradient id="paint1_linear" x1="-564.878" y1="56764.9" x2="-564.878" y2="18524.6" gradientUnits="userSpaceOnUse">
      <stop stop-color="gray" stop-opacity=".25"/>
      <stop offset=".54" stop-color="gray" stop-opacity=".12"/>
      <stop offset="1" stop-color="gray" stop-opacity=".1"/>
    </linearGradient>
    <linearGradient id="paint2_linear" x1="-34146.5" y1="37410.3" x2="-34146.5" y2="15695.1" gradientUnits="userSpaceOnUse">
      <stop stop-color="gray" stop-opacity=".25"/>
      <stop offset=".54" stop-color="gray" stop-opacity=".12"/>
      <stop offset="1" stop-color="gray" stop-opacity=".1"/>
    </linearGradient>
    <linearGradient id="paint3_linear" x1="-1284.57" y1="47504.8" x2="-1284.57" y2="20566.1" gradientUnits="userSpaceOnUse">
      <stop stop-color="gray" stop-opacity=".25"/>
      <stop offset=".54" stop-color="gray" stop-opacity=".12"/>
      <stop offset="1" stop-color="gray" stop-opacity=".1"/>
    </linearGradient>
    <linearGradient id="paint4_linear" x1="-12527.2" y1="8455.5" x2="-12527.2" y2="5832.49" gradientUnits="userSpaceOnUse">
      <stop stop-color="gray" stop-opacity=".25"/>
      <stop offset=".54" stop-color="gray" stop-opacity=".12"/>
      <stop offset="1" stop-color="gray" stop-opacity=".1"/>
    </linearGradient>
    <linearGradient id="paint5_linear" x1="-7834.81" y1="10640.4" x2="-7834.81" y2="8591.23" gradientUnits="userSpaceOnUse">
      <stop stop-color="gray" stop-opacity=".25"/>
      <stop offset=".54" stop-color="gray" stop-opacity=".12"/>
      <stop offset="1" stop-color="gray" stop-opacity=".1"/>
    </linearGradient>
    <linearGradient id="paint6_linear" x1="-13526.4" y1="23916.9" x2="-13526.4" y2="18189.9" gradientUnits="userSpaceOnUse">
      <stop stop-color="gray" stop-opacity=".25"/>
      <stop offset=".54" stop-color="gray" stop-opacity=".12"/>
      <stop offset="1" stop-color="gray" stop-opacity=".1"/>
    </linearGradient>
    <linearGradient id="paint7_linear" x1="-14251" y1="10640.4" x2="-14251" y2="8591.23" gradientUnits="userSpaceOnUse">
      <stop stop-color="gray" stop-opacity=".25"/>
      <stop offset=".54" stop-color="gray" stop-opacity=".12"/>
      <stop offset="1" stop-color="gray" stop-opacity=".1"/>
    </linearGradient>
    <linearGradient id="paint8_linear" x1="-14215.1" y1="25993.6" x2="-14215.1" y2="19398.8" gradientUnits="userSpaceOnUse">
      <stop stop-color="gray" stop-opacity=".25"/>
      <stop offset=".54" stop-color="gray" stop-opacity=".12"/>
      <stop offset="1" stop-color="gray" stop-opacity=".1"/>
    </linearGradient>
    <linearGradient id="paint9_linear" x1="-306.22" y1="29407.3" x2="-306.22" y2="21282" gradientUnits="userSpaceOnUse">
      <stop stop-color="gray" stop-opacity=".25"/>
      <stop offset=".54" stop-color="gray" stop-opacity=".12"/>
      <stop offset="1" stop-color="gray" stop-opacity=".1"/>
    </linearGradient>
    <linearGradient id="paint10_linear" x1="-15074.2" y1="22017.9" x2="-15074.2" y2="17402.1" gradientUnits="userSpaceOnUse">
      <stop stop-color="gray" stop-opacity=".25"/>
      <stop offset=".54" stop-color="gray" stop-opacity=".12"/>
      <stop offset="1" stop-color="gray" stop-opacity=".1"/>
    </linearGradient>
    <linearGradient id="paint11_linear" x1="-505.283" y1="24673.5" x2="-505.283" y2="18949.4" gradientUnits="userSpaceOnUse">
      <stop stop-color="gray" stop-opacity=".25"/>
      <stop offset=".54" stop-color="gray" stop-opacity=".12"/>
      <stop offset="1" stop-color="gray" stop-opacity=".1"/>
    </linearGradient>
    <linearGradient id="paint12_linear" x1="33.754" y1="1695.61" x2="33.754" y2="1646.29" gradientUnits="userSpaceOnUse">
      <stop stop-color="gray" stop-opacity=".25"/>
      <stop offset=".54" stop-color="gray" stop-opacity=".12"/>
      <stop offset="1" stop-color="gray" stop-opacity=".1"/>
    </linearGradient>
    <linearGradient id="paint13_linear" x1="-763.064" y1="1577.59" x2="-763.064" y2="1528.26" gradientUnits="userSpaceOnUse">
      <stop stop-color="gray" stop-opacity=".25"/>
      <stop offset=".54" stop-color="gray" stop-opacity=".12"/>
      <stop offset="1" stop-color="gray" stop-opacity=".1"/>
    </linearGradient>
    <linearGradient id="paint14_linear" x1="15508.2" y1="24424.2" x2="15508.2" y2="18973.8" gradientUnits="userSpaceOnUse">
      <stop stop-color="gray" stop-opacity=".25"/>
      <stop offset=".54" stop-color="gray" stop-opacity=".12"/>
      <stop offset="1" stop-color="gray" stop-opacity=".1"/>
    </linearGradient>
    <linearGradient id="paint15_linear" x1="816.459" y1="29521.5" x2="816.459" y2="22805.1" gradientUnits="userSpaceOnUse">
      <stop stop-color="gray" stop-opacity=".25"/>
      <stop offset=".54" stop-color="gray" stop-opacity=".12"/>
      <stop offset="1" stop-color="gray" stop-opacity=".1"/>
    </linearGradient>
    <linearGradient id="paint16_linear" x1="15787.6" y1="20669.1" x2="15787.6" y2="16853.1" gradientUnits="userSpaceOnUse">
      <stop stop-color="gray" stop-opacity=".25"/>
      <stop offset=".54" stop-color="gray" stop-opacity=".12"/>
      <stop offset="1" stop-color="gray" stop-opacity=".1"/>
    </linearGradient>
    <linearGradient id="paint17_linear" x1="1008.97" y1="24774.8" x2="1008.97" y2="20043.2" gradientUnits="userSpaceOnUse">
      <stop stop-color="gray" stop-opacity=".25"/>
      <stop offset=".54" stop-color="gray" stop-opacity=".12"/>
      <stop offset="1" stop-color="gray" stop-opacity=".1"/>
    </linearGradient>
  </defs>
</svg>