<svg width="15" height="16" fill="none" xmlns="http://www.w3.org/2000/svg">
  <path fill-rule="evenodd" clip-rule="evenodd" d="M6.616 4.722l-.884.884 1.326 1.326a.625.625 0 01-.884.884L4.848 6.49l-.884.884.442.442a.625.625 0 11-.884.883l-.442-.441-.884.883 1.326 1.326a.625.625 0 01-.884.884l-1.325-1.326-.266.265a.875.875 0 000 1.238L4.23 14.71a.875.875 0 001.238 0l8.485-8.485a.875.875 0 000-1.238L10.77 1.805a.875.875 0 00-1.237 0l-.265.265 1.325 1.326a.625.625 0 11-.883.884L8.383 2.954l-.884.884.442.442a.625.625 0 11-.884.884l-.442-.442z" fill="#5C666B"/>
</svg>