<svg width="40" height="34" fill="none" xmlns="http://www.w3.org/2000/svg">
  <path d="M39.792 4.558c-1.48.65-3.056 1.08-4.7 1.288a8.112 8.112 0 003.588-4.509 16.303 16.303 0 01-5.173 1.975A8.175 8.175 0 0027.55.73c-4.517 0-8.153 3.666-8.153 8.16a8.4 8.4 0 00.19 1.86C12.802 10.42 6.801 7.17 2.77 2.219A8.213 8.213 0 001.654 6.34a8.17 8.17 0 003.623 6.78 8.056 8.056 0 01-3.685-1.005v.09c0 3.964 2.827 7.257 6.536 8.015a8.144 8.144 0 01-2.14.269c-.522 0-1.049-.03-1.544-.14 1.057 3.231 4.057 5.606 7.623 5.683a16.392 16.392 0 01-10.115 3.48c-.669 0-1.31-.03-1.952-.112 3.614 2.33 7.896 3.66 12.515 3.66 15.011 0 23.218-12.434 23.218-23.213 0-.36-.012-.709-.03-1.055 1.62-1.149 2.98-2.584 4.09-4.235z" fill="url(#paint0_linear)"/>
  <defs>
    <linearGradient id="paint0_linear" x1="39.792" y1=".731" x2="4.296" y2="35.966" gradientUnits="userSpaceOnUse">
      <stop stop-color="#C0C1C2"/>
      <stop offset="1" stop-color="#F2F2F2"/>
    </linearGradient>
  </defs>
</svg>